<svg xmlns="http://www.w3.org/2000/svg" xmlns:xlink="http://www.w3.org/1999/xlink" width="552" height="316" viewBox="0 0 552 316"><defs><clipPath id="a"><rect width="552" height="316" transform="translate(22.187 30.319)" fill="#e3e3e3"/></clipPath><linearGradient id="b" x1="0.5" x2="0.5" y2="1" gradientUnits="objectBoundingBox"><stop offset="0" stop-color="#98f5d2"/><stop offset="1" stop-color="#45e0a4"/></linearGradient><linearGradient id="g" x1="0.5" x2="0.5" y2="1" gradientUnits="objectBoundingBox"><stop offset="0" stop-color="#ffdd53"/><stop offset="1" stop-color="#ffbe4a"/></linearGradient><linearGradient id="h" x1="0.5" x2="0.5" y2="1" gradientUnits="objectBoundingBox"><stop offset="0" stop-color="#f2c845"/><stop offset="1" stop-color="#e8a82f"/></linearGradient></defs><g transform="translate(-22.187 -30.319)"><g clip-path="url(#a)"><rect width="552" height="316" transform="translate(22.187 30.319)" fill="none"/><g transform="translate(66.558 58.585)"><g transform="translate(12.01 34.796)"><path d="M210.4,225.208l-3.617,7.975,2.442,1.106a2.08,2.08,0,0,1,1.211,1.817,12.267,12.267,0,0,0,.128,1.3,2.079,2.079,0,0,1-.833,2.014l-2.179,1.561,5.1,7.122,2.179-1.562a2.081,2.081,0,0,1,2.175-.142,12.212,12.212,0,0,0,1.193.54,2.082,2.082,0,0,1,1.332,1.731l.262,2.668,8.715-.86-.267-2.678a2.084,2.084,0,0,1,.976-1.954q.271-.174.534-.362t.514-.389a2.076,2.076,0,0,1,2.154-.3l2.46,1.114,3.617-7.975-2.447-1.111a2.081,2.081,0,0,1-1.21-1.819,12.152,12.152,0,0,0-.126-1.3,2.08,2.08,0,0,1,.834-2.012l2.18-1.562-5.1-7.121-2.18,1.562a2.08,2.08,0,0,1-2.173.143,12.1,12.1,0,0,0-1.189-.536,2.082,2.082,0,0,1-1.334-1.731l-.265-2.674-8.715.86.264,2.675a2.079,2.079,0,0,1-.974,1.947q-.272.175-.538.365t-.515.389a2.086,2.086,0,0,1-2.165.3Zm8.062,4.524A7.173,7.173,0,1,1,216.8,239.74,7.168,7.168,0,0,1,218.464,229.732Z" transform="translate(-118.245 -138.072)" fill="#ebebeb"/><path d="M643.3,109.715l-4.841,2.794.856,1.482a1.329,1.329,0,0,1-.047,1.393,7.479,7.479,0,0,0-.418.724,1.329,1.329,0,0,1-1.181.735h-1.711v5.592h1.711a1.329,1.329,0,0,1,1.181.735,7.58,7.58,0,0,0,.418.725,1.328,1.328,0,0,1,.047,1.393l-.856,1.482,4.841,2.794.857-1.488a1.33,1.33,0,0,1,1.233-.65c.137.007.274.01.411.01s.275,0,.411-.01a1.325,1.325,0,0,1,1.228.647l.862,1.492,4.842-2.794-.857-1.485a1.329,1.329,0,0,1,.048-1.394,7.671,7.671,0,0,0,.418-.72,1.328,1.328,0,0,1,1.18-.734h1.712v-5.592h-1.712a1.328,1.328,0,0,1-1.18-.734,7.667,7.667,0,0,0-.418-.72,1.33,1.33,0,0,1-.048-1.393l.857-1.486-4.842-2.794-.857,1.486a1.328,1.328,0,0,1-1.229.649c-.137-.007-.275-.01-.415-.01s-.275,0-.411.01a1.333,1.333,0,0,1-1.234-.651Zm2.5,5.344a4.579,4.579,0,1,1-4.58,4.577A4.576,4.576,0,0,1,645.8,115.059Z" transform="translate(-228.813 -109.715)" fill="#ebebeb"/><path d="M88.165,137.716l3.4,4.441,1.359-1.041a1.328,1.328,0,0,1,1.388-.133,7.716,7.716,0,0,0,.772.321,1.328,1.328,0,0,1,.881,1.076l.221,1.7,5.545-.722-.221-1.7a1.329,1.329,0,0,1,.577-1.266,7.763,7.763,0,0,0,.664-.508,1.328,1.328,0,0,1,1.376-.226l1.58.657,2.145-5.162-1.586-.657a1.33,1.33,0,0,1-.8-1.14c-.01-.136-.025-.272-.043-.409s-.039-.272-.063-.407a1.327,1.327,0,0,1,.483-1.3l1.368-1.047-3.395-4.44-1.363,1.041a1.328,1.328,0,0,1-1.388.131,7.827,7.827,0,0,0-.768-.321,1.326,1.326,0,0,1-.88-1.076l-.22-1.7-5.545.722.22,1.7a1.329,1.329,0,0,1-.575,1.266,7.969,7.969,0,0,0-.661.506,1.328,1.328,0,0,1-1.376.229l-1.584-.658-2.145,5.162,1.585.658a1.327,1.327,0,0,1,.8,1.136c.01.137.025.274.043.412s.039.272.063.407a1.331,1.331,0,0,1-.486,1.307Zm4.977-3.171a4.579,4.579,0,1,1,5.13,3.952A4.576,4.576,0,0,1,93.142,134.545Z" transform="translate(-87.519 -113.352)" fill="#ebebeb"/></g></g><g transform="translate(244.893 104.4)"><path d="M1100.55,782.866h-40.571a26.835,26.835,0,0,1-26.807-26.806V715.488a26.836,26.836,0,0,1,26.807-26.806h40.571a26.837,26.837,0,0,1,26.807,26.806v40.573A26.837,26.837,0,0,1,1100.55,782.866Zm-40.571-86.111a18.754,18.754,0,0,0-18.734,18.733v40.573a18.755,18.755,0,0,0,18.734,18.733h40.571a18.754,18.754,0,0,0,18.733-18.733V715.488a18.754,18.754,0,0,0-18.733-18.733Z" transform="translate(-1033.172 -688.682)" fill="#ebebeb"/><path d="M1095.8,775.421a24.116,24.116,0,1,1,24.115-24.115A24.143,24.143,0,0,1,1095.8,775.421Zm0-40.158a16.042,16.042,0,1,0,16.042,16.042A16.061,16.061,0,0,0,1095.8,735.263Z" transform="translate(-1048.703 -704.213)" fill="#ebebeb"/><path d="M1156.124,720.959a5.8,5.8,0,1,1-5.8-5.8A5.8,5.8,0,0,1,1156.124,720.959Z" transform="translate(-1078.085 -699.362)" fill="#ebebeb"/></g><g transform="translate(59.1 315.666)"><ellipse cx="232.885" cy="8.151" rx="232.885" ry="8.151" fill="#ebebeb"/></g><g transform="translate(116.2 177.428)"><g transform="translate(39.219 59.394)"><rect width="23.498" height="50.765" fill="url(#b)"/><g transform="translate(18.117)" opacity="0.1"><rect width="5.381" height="50.765"/></g></g><g transform="translate(70.177 40.208)"><rect width="23.498" height="69.95" fill="url(#b)"/><g transform="translate(18.117)" opacity="0.1"><rect width="5.381" height="69.95"/></g></g><g transform="translate(8.325 70.827)"><rect width="23.498" height="39.332" fill="url(#b)"/><g transform="translate(18.117)" opacity="0.1"><rect width="5.381" height="39.332" fill="url(#b)"/></g></g><g transform="translate(101.136 14.66)"><rect width="23.498" height="95.499" fill="url(#b)"/><rect width="5.381" height="95.499" transform="translate(18.118)" fill="#5ccea2"/></g><path d="M138.212,320.1v-9.789S223.8,304.7,258.385,231.682l3.438.681S238.859,307.2,138.212,320.1Z" transform="translate(-138.212 -225.185)" fill="#37474f"/><path d="M305.291,232.565l-10.814-2.757,8.96-6.878Z" transform="translate(-178.47 -222.93)" fill="#37474f"/></g><g transform="translate(52.774 287.435)"><line x2="478.421" fill="none" stroke="#4ee2a9" stroke-linecap="round" stroke-linejoin="round" stroke-width="1"/></g><g transform="translate(419.435 209.444)"><g transform="translate(24.977 15.785)"><path d="M656.324,275.535s4.512-16.2,8.116-21.7S674.76,242.3,674.76,242.3,674.6,267.267,656.324,275.535Z" transform="translate(-656.324 -242.297)" fill="#ffc727"/><path d="M656.959,282.3a77.455,77.455,0,0,0,4.113-7.847,54.885,54.885,0,0,1,2.241-8.516.042.042,0,0,1,.08.028c-.6,2.559-1.3,5.095-1.928,7.646,1.822-3.941,3.553-7.933,5.722-11.659a24.9,24.9,0,0,1,2.092-5.183c.024-.047.1-.022.079.029a33.162,33.162,0,0,0-1.407,3.887,38.845,38.845,0,0,1,3.428-4.735c.079-.093.237.01.159.109a57.026,57.026,0,0,0-6.809,12.177,64.766,64.766,0,0,0,5.662-7.077.024.024,0,0,1,.04.028,58.157,58.157,0,0,1-6.063,7.86c-1.389,3.124-2.754,6.261-4.409,9.233,3.308-2.8,5.853-6.414,8.372-9.906a.075.075,0,0,1,.124.085c-2.52,3.83-5.128,7.438-8.754,10.275a40.248,40.248,0,0,1-2.422,3.785A.193.193,0,0,1,656.959,282.3Z" transform="translate(-656.636 -249.336)" fill="#263238"/></g><g transform="translate(17.493)"><path d="M645.885,258.656s8.11-14.933,5.754-29.412-4.879-19.634-4.879-19.634A57.625,57.625,0,0,0,645.885,258.656Z" transform="translate(-640.825 -209.61)" fill="#ffc727"/><g transform="translate(1.658 7.108)"><path d="M644.331,242.791a70.647,70.647,0,0,0,3.131,12.058c.023-5.313.124-10.627.266-15.939a41.081,41.081,0,0,1-1.531-9.9c0-.1.143-.092.151,0a56.422,56.422,0,0,0,1.421,8.515q.185-6.575.428-13.147a.057.057,0,0,1,.115,0c-.007,6.846,0,13.694-.046,20.541a54.939,54.939,0,0,0,2.338-8.134.024.024,0,0,1,.047.007,31.846,31.846,0,0,1-2.393,9.257c-.032,4.377-.079,8.754-.177,13.129,1.372-4.653,2.838-9.159,3.234-14.076a.051.051,0,0,1,.1,0,52.443,52.443,0,0,1-3.294,16.025.289.289,0,0,1-.09.128q-.061,2.4-.14,4.8a.178.178,0,0,1-.356-.006q-.095-4.908-.08-9.817a43.988,43.988,0,0,1-3.2-13.442C644.257,242.759,644.325,242.75,644.331,242.791Z" transform="translate(-644.26 -224.33)" fill="#263238"/><path d="M645.368,257.706a27.837,27.837,0,0,1,.566,3.945c0,.045-.066.051-.077.01a27.9,27.9,0,0,1-.667-3.934C645.178,257.625,645.348,257.606,645.368,257.706Z" transform="translate(-644.74 -241.555)" fill="#263238"/><path d="M654.907,235.141c.007-.045.076-.031.077.012a10.131,10.131,0,0,1-.407,2.721c-.02.072-.124.039-.11-.032C654.643,236.944,654.753,236.041,654.907,235.141Z" transform="translate(-649.537 -229.906)" fill="#263238"/></g></g><g transform="translate(0 17.247)"><path d="M625.069,277.965s-1.708-15.5-7.154-22.6A33.6,33.6,0,0,0,604.6,245.326S611.155,272.178,625.069,277.965Z" transform="translate(-604.601 -245.326)" fill="#ffc727"/><g transform="translate(3.781 4.959)"><path d="M620.642,271.122a57.887,57.887,0,0,0,7,6.815q-1.952-4.566-4.3-8.916c-2.773-1.852-5.535-3.786-7.453-6.567a.043.043,0,0,1,.067-.052,31.34,31.34,0,0,0,7.033,5.978,120.525,120.525,0,0,0-7.942-12.626.1.1,0,0,1,.156-.122,73.986,73.986,0,0,1,4.8,6.544c-.633-1.6-1.188-3.243-1.83-4.827a.037.037,0,0,1,.068-.028,28.262,28.262,0,0,1,2.684,6.315,79.4,79.4,0,0,1,5.3,10.062c-.419-2.3-.868-4.59-1.412-6.868-.01-.043.062-.063.076-.021a37.888,37.888,0,0,1,1.7,7.7q1.413,3.328,2.528,6.77c.02.061-.069.1-.094.04-.37-.953-.76-1.894-1.156-2.833-.018,0-.035,0-.053-.013a31.673,31.673,0,0,1-7.193-7.329A.014.014,0,0,1,620.642,271.122Z" transform="translate(-613.775 -255.595)" fill="#263238"/><path d="M612.5,263.1c.565.468,1.091.97,1.641,1.456a12.716,12.716,0,0,1,1.473,1.323.026.026,0,0,1-.03.039,7.591,7.591,0,0,1-1.666-1.261,12.512,12.512,0,0,1-1.481-1.494A.045.045,0,0,1,612.5,263.1Z" transform="translate(-612.43 -259.471)" fill="#263238"/></g></g><g transform="translate(12.225 44.663)"><g transform="translate(1.317 3.623)"><path d="M651.98,309.6l-.564,7.384-1.7,22.321H634.9l-1.7-22.321-.564-7.384H651.98Z" transform="translate(-632.642 -309.6)" fill="#455a64"/><path d="M651.98,309.6l-.564,7.384H633.206l-.564-7.384H651.98Z" transform="translate(-632.642 -309.6)" fill="#37474f"/></g><rect width="21.971" height="5.661" transform="translate(21.971 5.661) rotate(180)" fill="#455a64"/></g></g><g transform="translate(67.278 80.838)"><path d="M76.192,198.769l-.379,5.783-4.171-.758.853-5.783Z" fill="#ffb8a1"/><path d="M75.417,198.769l-.315,5.783-3.461-.758.708-5.783Z" transform="translate(22.819 -13.111) rotate(17)" fill="#ffb8a1"/><path d="M58.1,115.624s5,7.182,9.282,12.056,16.059,29.27,17.161,36.848S79.424,207,79.424,207H72.5s-5.834-32.382-7.977-40.077-12.853-41.81-12.853-41.81Z" transform="translate(-2 -7)" fill="#27363d"/><path d="M34.553,115.7s-5.113,5.95-2.775,12.059S51.7,160.382,49.571,164.879,32.5,201.76,32.5,201.76l5.762.737s27.417-30.9,30.272-35.436S58.169,135.568,55.245,130.5,57.03,115.7,57.03,115.7Z" transform="translate(-0.968 -1)" fill="#455a64"/><g transform="translate(17.666 46.796)"><path d="M119.178,117.406c-6.4,5.485-4.618,13.486-7.29,17.826-1.635,2.653-6.957,5.456-8.015,8.514-1.739,5.024,2.52,6.828,1.568,9.559-1.35,3.868-6.53,3.568-7.462,9.9s6.03,13.062,22.558,14.885,25.607-4.228,26.2-9.6-4.906-7.156-5.28-11.167c-.24-2.563,3.156-4.347,3.327-9.063s-4.424-6.249-5.082-10.254c-.661-4.024,1.462-13.738-4.424-18.707S122.336,114.7,119.178,117.406Z" transform="translate(-96.569 -115.445)" fill="#263238"/><path d="M119.459,118.277a13.631,13.631,0,0,0-4.249,4.9,29.857,29.857,0,0,0-2.362,6.5,18.014,18.014,0,0,1-1.284,3.89,9.952,9.952,0,0,1-2.219,2.739c-1.788,1.617-3.921,2.846-5.527,4.663-1.521,1.721-2.7,4.023-2.1,6.368a24.086,24.086,0,0,0,1.694,3.507,3.013,3.013,0,0,1-.273,3.467,22.326,22.326,0,0,1-2.964,1.823,10.421,10.421,0,0,0-2.411,2.338,8.088,8.088,0,0,0-1.522,6.356c.973,5.142,5.8,8.066,10.25,9.907.621.257,1.245.506,1.869.755.1.039.178-.1.079-.144-4.469-2-9.656-4.348-11.372-9.345a7.541,7.541,0,0,1,.771-6.634,9.542,9.542,0,0,1,2.361-2.485c.9-.664,1.937-1.071,2.851-1.7a3.039,3.039,0,0,0,1.405-2.716,7.484,7.484,0,0,0-1.23-3.286,6.1,6.1,0,0,1-1.055-3.462,6.662,6.662,0,0,1,1.322-3.3c1.39-1.97,3.451-3.263,5.3-4.755a11.155,11.155,0,0,0,4.021-5.563c.343-1.178.556-2.391.852-3.582a31.5,31.5,0,0,1,.985-3.266,15.594,15.594,0,0,1,3.494-5.76,8.947,8.947,0,0,1,1.365-1.121C119.569,118.328,119.514,118.239,119.459,118.277Z" transform="translate(-96.109 -116.172)" fill="#263238"/><path d="M160.944,166.732a6.187,6.187,0,0,0-1.143-2.406c-.575-.728-1.27-1.344-1.907-2.015a4.7,4.7,0,0,1-1.351-2.232,4.474,4.474,0,0,1,.728-2.978,22.432,22.432,0,0,0,1.48-2.88,10.487,10.487,0,0,0,.63-3.081,10.617,10.617,0,0,0-1.663-6.146c-.563-.923-1.2-1.8-1.768-2.719a13.239,13.239,0,0,1-1.465-3.21c-.744-2.489-.9-5.114-1.513-7.636a39.436,39.436,0,0,0-2.684-7.5c-.028-.06-.116-.005-.088.054a34.382,34.382,0,0,1,2.347,6.772c.525,2.212.727,4.465,1.117,6.7a16.908,16.908,0,0,0,.839,3.221,17.321,17.321,0,0,0,1.434,2.763,15.384,15.384,0,0,1,2.579,5.777,10.1,10.1,0,0,1-1.066,6.186c-.869,1.644-2.085,3.455-1.326,5.379.643,1.628,2.2,2.6,3.228,3.955a6.532,6.532,0,0,1,1.118,5.224c-.89,4.627-5.528,6.923-9.87,7.152a.106.106,0,0,0,.005.212c3.775-.045,7.882-1.7,9.652-5.238A7.991,7.991,0,0,0,160.944,166.732Z" transform="translate(-110.042 -117.625)" fill="#263238"/></g><path d="M65.368,87.362s1.823,7.512.656,11.231-4.725,13.94-3.559,15.982,3.559,5.678,3.559,5.678.583,1.167-1.313,1.6S44.95,125.44,41.01,125.8s-10.675,1.7-11.332-.776,4.549-23.145,8.2-28.542,10.283-13.492,16.19-15.315S65.368,87.362,65.368,87.362Z" fill="#ffc727"/><path d="M72.312,261.425c7.9,4.279,22.371,6.007,29.013-6.913s24.9-83.622,26.013-85.219,68.493-61.047,69.934-61.589,208.183-55.3,208.183-55.3" transform="translate(-72.312 -52.409)" fill="none" stroke="#263238" stroke-miterlimit="10" stroke-width="1"/><path d="M31.576,94.1s-5.642,14.1-6.206,17.676-2.257,6.205,5.453,6.581S57.276,115.063,58.593,116s5.465,1.262,7.405,1.615,3.836.151,4.521-.5,2.14-6.934,0-8.133a8.251,8.251,0,0,0-6.612-1.129c-2.4.685-4.929,2.172-6.641,2.172s-21.848,1.743-22.79,1.743,6.847-11.416,6.847-11.416Z" transform="translate(0.439 -4.648)" fill="#ffb8a1"/><g transform="translate(39.059 44.681)"><g transform="translate(8.067 19.514)"><path d="M138.4,150.431c.37.6,4.893,3.789,7.824,2.654.954-.371-.84-5.668-.84-5.668l-.043-.421-.607-5.9-7.828-1.981-1.114-.236s.272,1.6.632,3.595c.016.093.033.185.051.284s.033.22.053.325c.05.3.1.6.16.9.044.229.085.454.139.693s.1.476.149.719A38.268,38.268,0,0,0,138.4,150.431Z" transform="translate(-135.792 -138.882)" fill="#ffb8a1"/><path d="M136.424,142.477a11.9,11.9,0,0,0,8.917,4.52l-.607-5.9-7.828-1.981-1.114-.236S136.064,140.485,136.424,142.477Z" transform="translate(-135.792 -138.882)" fill="#d97b67" opacity="0.48"/></g><path d="M147.8,123.489c3.75,9.622-2.17,13.78-2.17,13.78s-8.614,1.883-13.592-5.373-2.356-13.949,1.762-16.137S144.053,113.867,147.8,123.489Z" transform="translate(-126.017 -113.116)" fill="#ffb8a1"/><path d="M149.289,123.1a6.683,6.683,0,0,1-.7.163,1.163,1.163,0,0,1-.745.031.37.37,0,0,1-.191-.41.918.918,0,0,1,.728-.578,1.352,1.352,0,0,1,.969.073A.4.4,0,0,1,149.289,123.1Z" transform="translate(-130.778 -115.083)" fill="#263238"/><path d="M142.916,129.371a6.9,6.9,0,0,0,.669-.262,1.163,1.163,0,0,0,.631-.4.37.37,0,0,0-.075-.445.919.919,0,0,0-.928-.062,1.353,1.353,0,0,0-.756.61A.4.4,0,0,0,142.916,129.371Z" transform="translate(-129.429 -116.592)" fill="#263238"/><path d="M144.33,130c-.832.429-.1,2.516.674,2.119S145.027,129.643,144.33,130Z" transform="translate(-144.351 -98.465) rotate(-7)" fill="#263238"/><path d="M150.615,126.7c.689-.537,1.372,1.519.734,2.016S150.039,127.152,150.615,126.7Z" transform="translate(-147.553 -93.929) rotate(-8)" fill="#263238"/><path d="M5.8,6.828l.9,4.131-.9.093" transform="translate(11.618 6.997) rotate(-7)" fill="none" stroke="#ffa095" stroke-linecap="round" stroke-linejoin="round" stroke-width="0.3"/><path d="M131.98,131.887c2.264-1.284-.762-8.72-1.144-9.629.27.56,1.711,3.52,1.995,3.52a2.525,2.525,0,0,0,.653-.514l.005,0a7.827,7.827,0,0,1-.461-1.088c-.065-.171.244.319.661.9.112-.1.23-.221.364-.34a9.491,9.491,0,0,1-.937-2.333c-.076-.31.644.892,1.473,1.837a31.389,31.389,0,0,1,5.482-4.212c.563-.321,1.064-.572,1.514-.781-.446-.863-1.024-1.729-.857-1.564a9.436,9.436,0,0,1,1.194,1.413c.245-.11.474-.209.682-.292-.575-1.248-2.166-2.887-1.817-2.692a9.664,9.664,0,0,1,2.736,2.383c.915-.272,1.229-.229,1.139-.457a10.427,10.427,0,0,0-6.086-5.165c-4.3-1.21-10.681,1.59-11.743,7.461,0,0-2.711,4.119-1.668,7.145S130.671,132.627,131.98,131.887Z" transform="translate(-124.925 -112.596)" fill="#263238"/><path d="M133.925,137.444s-3.246-2.272-4.353-1.006,2.112,5.1,3.958,5.114a1.76,1.76,0,0,0,1.89-1.7Z" transform="translate(-126.064 -118.639)" fill="#ffb8a1"/><path d="M130.918,137.975c-.018,0-.012.03,0,.03a2.913,2.913,0,0,1,2.038,1.2.636.636,0,0,0-.953.163c-.015.021.016.045.035.033a.71.71,0,0,1,.818-.035,3.433,3.433,0,0,1,.567.465c.059.054.166-.026.113-.093l-.012-.015C133.2,138.759,131.975,137.7,130.918,137.975Z" transform="translate(-126.467 -119.122)" fill="#ffa095"/><ellipse cx="1.821" cy="0.728" rx="1.821" ry="0.728" transform="matrix(0.951, -0.309, 0.309, 0.951, 12.876, 17.285)" fill="#ffa095"/><ellipse cx="1.321" cy="0.728" rx="1.321" ry="0.728" transform="matrix(0.951, -0.309, 0.309, 0.951, 19.876, 14.285)" fill="#ffa095"/></g><path d="M72.832,80.9s10.015,7.275,12.582,7.1,17.281-11.045,18.65-12.586,1.708-8.113,3.248-8.028,4.491-.663,5.889,1.241,1.462,4.592.264,6.047-6,3.64-6.681,4.41S91.747,97.339,88.961,97.8s-10.5-.29-15.315-4.467-3.04-6.185-3.04-6.185Z" transform="translate(1.474 0.732)" fill="#ffb8a1"/><path d="M56.835,72.484a13.6,13.6,0,0,1,5.178,0c2.407.583,20.931,12.836,21.149,12.981S75.578,96.7,75.578,96.7s-9.005-5.943-10.1-5.725-22.646,3.683-22.646,3.683-4.959,8.678-5.4,9.335-11.3-5.324-11.3-5.324,5.907-14.44,9.043-16.919,13.419-7.8,13.419-7.8,3.573,3.063,5.324,2.625S56.835,72.484,56.835,72.484Z" fill="#ffc727"/><path d="M71.641,202.079a12.636,12.636,0,0,0,2.514.647,9.005,9.005,0,0,0,2.848,0c1.036-.216,3.367.863,3.453,1.553a10.537,10.537,0,0,1,0,1.726H69.02s.6-3.927,1.467-3.927Z" fill="#27363d"/><path d="M31.89,201.952a3.761,3.761,0,0,1,1.479,1.109,4.129,4.129,0,0,0,2.35.9c.581.026,2.4,1.822,2.245,2.139s-3.01.422-4.383,0S29.8,204.751,29.8,203.22,31.89,201.952,31.89,201.952Z" fill="#455a64"/><path d="M60.574,63.03a3.239,3.239,0,0,1-3.75,1.769" fill="none" stroke="#ffa095" stroke-linecap="round" stroke-width="0.4"/><path d="M59.578,64.872a1.616,1.616,0,0,1-1.588.958" transform="translate(14.259 -10.016) rotate(11)" fill="none" stroke="#ffa095" stroke-linecap="round" stroke-width="0.4"/></g></g><g transform="translate(63.794 46.313)"><g transform="translate(0 64)" style="isolation:isolate"><g transform="translate(0 189.885)"><path d="M253.905,388.3,194,399.141c-32.214,5.386-70.671,6.885-126.383,1.18l60.211-10.067C176.54,394.277,221.691,393.692,253.905,388.3Z" transform="translate(-67.619 -388.305)" fill="#ffce4e"/></g><g transform="translate(125.724 7.514)"><path d="M301.269,344.59l-64.3,10.577c21.835-3.65,44.646-9.93,60.786-17.875,89.527-43.287,127.175-193.215,127.712-194.647H497.55c-.537,1.432-9.028,25.968-44.983,94.462-22.232,40.7-55.1,70.673-94.6,90.117C341.831,335.169,323.1,340.939,301.269,344.59Z" transform="translate(-236.973 -142.645)" fill="url(#g)"/></g><path d="M365.094,132.523l16.746,7.514c-.537,1.432-36,148.8-127.712,194.647-55.892,27.94-103.694,26.262-185.927,19.47l-.583-19.731c79.887,6.6,141.186,1.765,179.409-18.244C333.281,271.032,364.966,132.861,365.094,132.523Z" transform="translate(-67.619 -132.523)" fill="#ffc727"/><path d="M365.094,132.523l16.746,7.514c-.537,1.432-36,148.8-127.712,194.647-55.892,27.94-103.694,26.262-185.927,19.47l-.583-19.731c79.887,6.6,141.186,1.765,179.409-18.244C333.281,271.032,364.966,132.861,365.094,132.523Z" transform="translate(-67.619 -132.523)" stroke="rgba(0,0,0,0)" stroke-miterlimit="10" stroke-width="1" fill="url(#h)"/><g transform="translate(297.474 0)"><path d="M468.328,132.523h77.688l11.137,7.514H485.074Z" transform="translate(-468.328 -132.523)" fill="#ffc727"/></g></g><g transform="translate(267.636)" style="isolation:isolate"><g transform="translate(20.475 15.709)"><path d="M524.25,67.473l50.516,64.085-119.051-.32Z" transform="translate(-455.714 -67.473)" fill="#ffc727"/></g><g transform="translate(20.475 15.709)"><path d="M524.25,67.473l50.516,64.085-119.051-.32Z" transform="translate(-455.714 -67.473)" fill="url(#g)"/></g><path d="M448.609,125.786l-20.475-15.709,68.536-63.765,20.475,15.709Z" transform="translate(-428.134 -46.313)" fill="#e8a92f"/></g></g></g></svg>